Coordinates
version=1
nRows=21
nColumns=19
inDegrees=yes

Units are S.I. units (second, meters, Newtons, ...)
If the header above contains a line with 'inDegrees', this indicates whether rotational values are in degrees (yes) or radians (no).

endheader
time	subtalar_angle_l	subtalar_angle_r	pelvis_list	pelvis_rotation	pelvis_tilt	pelvis_tx	pelvis_ty	pelvis_tz	hip_flexion_l	hip_adduction_l	hip_rotation_l	hip_flexion_r	hip_adduction_r	hip_rotation_r	knee_flexion_l	knee_flexion_r	ankle_angle_l	ankle_angle_r
      3.03000000	     13.45799998	     16.76999204	     91.00647935	     -2.14002860	     12.11609587	      1.60801139	     -0.79513387	      0.70488515	     17.48496342	     -5.74784790	     -5.97759936	    -19.66405525	      6.78838516	      5.33818720	    -21.98584892	    -33.49252306	      0.69530616	      6.36679285
      3.04000000	     12.00896683	     17.55892440	     91.96252519	     -2.16112658	     12.13215028	      1.62224825	     -0.79363571	      0.70272381	     16.82565987	     -7.15265345	     -6.90061563	    -19.29253887	      5.43070906	      2.80548754	    -22.28783850	    -35.76995225	      1.25264217	      4.91816658
      3.05000000	     11.43731046	     17.58680696	     92.97411924	     -2.14408659	     12.08882953	      1.63641903	     -0.79205172	      0.70088458	     16.26490952	     -8.61363366	     -7.59294953	    -18.79853257	      3.95891310	      0.26940731	    -22.91349927	    -38.04563678	      2.11040358	      3.69340793
      3.06000000	     10.82125195	     17.60325720	     94.01827684	     -2.11280335	     11.97668836	      1.65044836	     -0.79036777	      0.69944185	     15.76921461	    -10.09490488	     -8.06775978	    -18.15519047	      2.39237263	     -2.23730379	    -23.70983312	    -40.32457589	      2.90301816	      2.34945257
      3.07000000	     10.28566273	     17.51673456	     95.06380104	     -2.07679312	     11.81338823	      1.66427230	     -0.78861648	      0.69845926	     15.29043989	    -11.54434309	     -8.30340979	    -17.38128095	      0.78720305	     -4.62140275	    -24.54742540	    -42.58697897	      3.71355644	      1.02882507
      3.08000000	      9.86513885	     17.33621240	     96.07343954	     -2.04521079	     11.60101348	      1.67781963	     -0.78682632	      0.69800453	     14.78924322	    -12.90909541	     -8.32383223	    -16.46905729	     -0.79274147	     -6.80998878	    -25.29466755	    -44.81597062	      4.50019367	     -0.22598183
      3.09000000	      9.58338215	     17.07609653	     97.01205811	     -2.01938195	     11.33879484	      1.69102803	     -0.78503168	      0.69813423	     14.23008617	    -14.14597787	     -8.18359281	    -15.40601263	     -2.28313622	     -8.75021707	    -25.83848144	    -46.99069790	      5.22753826	     -1.35881364
      3.10000000	      9.45353478	     16.78090187	     97.85320567	     -2.00789066	     11.01450545	      1.70384580	     -0.78326015	      0.69888956	     13.59811843	    -15.22283846	     -7.93776367	    -14.16218863	     -3.63060475	    -10.39734019	    -26.09221953	    -49.09589229	      5.86379847	     -2.29882289
      3.11000000	      9.46571294	     16.50028099	     98.56923889	     -2.00585436	     10.64357043	      1.71625447	     -0.78153551	      0.70027496	     12.85546135	    -16.11850356	     -7.65972696	    -12.74787658	     -4.78944596	    -11.74793800	    -26.00165310	    -51.10382370	      6.35870523	     -2.99440232
      3.12000000	      9.55277925	     16.32368927	     99.16566483	     -2.00327850	     10.32092429	      1.72826513	     -0.77985958	      0.70225543	     11.86671841	    -16.86336214	     -7.47734695	    -11.26886252	     -5.75183206	    -12.80836417	    -25.50914064	    -52.98247176	      6.56505276	     -3.25602748
      3.13000000	      9.79328611	     16.12534597	     99.57174885	     -2.01323778	      9.84534659	      1.73983592	     -0.77829307	      0.70480063	     10.92495127	    -17.35734226	     -7.27769855	     -9.49768426	     -6.42405104	    -13.57362580	    -24.72782006	    -54.72382977	      6.93791071	     -3.72939263
      3.14000000	      9.98966750	     16.02830245	     99.84851262	     -1.98675661	      9.55257412	      1.75107174	     -0.77679715	      0.70775255	      9.61530090	    -17.71993331	     -7.28912062	     -7.83634063	     -6.89892360	    -14.15513589	    -23.60241811	    -56.28127749	      7.02438656	     -3.78611324
      3.15000000	     10.32472681	     15.98836514	     99.93840141	     -1.97210222	      9.19738918	      1.76192735	     -0.77540635	      0.71112424	      8.22780588	    -17.88275715	     -7.52700687	     -6.01350888	     -7.05726584	    -14.43505002	    -22.17844355	    -57.64552582	      7.03259256	     -3.72605043
      3.16000000	     10.65584154	     15.97915590	     99.91411668	     -1.90639287	      8.94346708	      1.77248977	     -0.77409855	      0.71466808	      6.66255174	    -17.91775158	     -7.90021827	     -4.23448008	     -7.06769473	    -14.63774709	    -20.58309401	    -58.83104845	      6.97408644	     -3.56068539
      3.17000000	     11.33304596	     16.12971854	     99.71622185	     -1.79876411	      8.78137715	      1.78277137	     -0.77292526	      0.71833419	      4.94167700	    -17.76570550	     -8.47675194	     -2.52131418	     -6.80948338	    -14.68503103	    -18.86428485	    -59.79741892	      6.48890819	     -2.81155226
      3.18000000	     11.66995975	     16.15107690	     99.41554467	     -1.61338582	      8.66380806	      1.79278379	     -0.77185820	      0.72198571	      3.15068759	    -17.51050232	     -9.32907464	     -0.83082539	     -6.42458212	    -14.69689829	    -17.10532199	    -60.57661237	      6.40206653	     -2.54390701
      3.19000000	     12.14295481	     16.21249685	     99.05281556	     -1.37017517	      8.78073290	      1.80261109	     -0.77088144	      0.72545155	      1.14284694	    -17.16323462	    -10.25780681	      0.61772385	     -5.96876075	    -14.66464780	    -15.36516487	    -61.18589887	      5.82280083	     -1.61201540
      3.20000000	     12.49857690	     16.19086263	     98.56373110	     -1.01455241	      8.76577266	      1.81213642	     -0.77008798	      0.72876902	     -0.63046808	    -16.66997887	    -11.39632834	      2.20653779	     -5.36615429	    -14.63506855	    -13.80278787	    -61.61918091	      5.64072941	     -1.20656216
      3.21000000	     12.87998457	     16.01975625	     98.10080819	     -0.59397698	      9.03324158	      1.82152224	     -0.76936440	      0.73169927	     -2.59631155	    -16.16522161	    -12.46343842	      3.49506911	     -4.83809547	    -14.59705684	    -12.36844887	    -61.93470026	      4.96259086	     -0.08371135
      3.22000000	     13.22085678	     15.88526273	     97.62017399	     -0.06411419	      9.10860749	      1.83061165	     -0.76877899	      0.73433795	     -4.20559925	    -15.62780625	    -13.63764308	      5.00337308	     -4.33977303	    -14.59125690	    -11.19253948	    -62.14429568	      4.78923993	      0.31488369
      3.23000000	     13.57054334	     15.39016754	     97.19060462	      0.52791787	      9.41893583	      1.83957656	     -0.76827459	      0.73650164	     -5.91040287	    -15.11159727	    -14.62918593	      6.25328085	     -3.95252927	    -14.55275311	    -10.22216826	    -62.25634411	      4.23626519	      1.32860881
